<?xml version="1.0" encoding="UTF-8"?>
<svg width="16px" height="14px" viewBox="0 0 16 14" version="1.1" xmlns="http://www.w3.org/2000/svg" xmlns:xlink="http://www.w3.org/1999/xlink">
    <!-- Generator: Sketch 51.2 (57519) - http://www.bohemiancoding.com/sketch -->
    <title>disconnect</title>
    <desc>Created with Sketch.</desc>
    <defs></defs>
    <g id="Symbols" stroke="none" stroke-width="1" fill="none" fill-rule="evenodd">
        <g id="CIVIC" transform="translate(-885.000000, -26.000000)" fill="#9B9B9B">
            <g id="disconnect" transform="translate(885.000000, 26.000000)">
                <path d="M8.36810502,13.8207363 C4.21385682,13.8207363 0.834103934,10.5523758 0.834103934,6.53544585 C0.829734213,4.92675824 1.37911357,3.36345633 2.39364216,2.09707717 C2.75391809,1.6471987 3.41675951,1.56320567 3.88236077,1.90846124 C4.34178416,2.24796992 4.43279489,2.88749581 4.08562812,3.33678486 C4.0827652,3.34061612 4.0797516,3.34430003 4.076738,3.34813129 C3.34850146,4.25717167 2.95417184,5.37928912 2.95718544,6.53397228 C2.95718544,9.45648775 5.37966815,11.8255333 8.36810502,11.8255333 C11.3565419,11.8255333 13.7790246,9.45648775 13.7790246,6.53397228 C13.7820382,5.37928912 13.3877086,4.25717167 12.659472,3.34813129 C12.3059767,2.903705 12.387796,2.26300025 12.8422469,1.91715525 C12.8461646,1.91420813 12.8499316,1.91140836 12.8538493,1.90846124 C13.3194505,1.56320567 13.982292,1.6471987 14.3425679,2.09707717 C15.3570965,3.36345633 15.9063251,4.92675824 15.9021061,6.53544585 C15.9021061,10.5523758 12.5223532,13.8207363 8.36810502,13.8207363" id="Fill-1"></path>
                <path d="M8.16165832,8.88240628 C7.57912936,8.88240628 7.10689817,8.42059196 7.10689817,7.8509129 L7.10689817,1.11378754 C7.10689817,0.542045492 7.58093752,0.07861025 8.16542532,0.07861025 C8.75006381,0.07861025 9.22395248,0.542045492 9.22395248,1.11378754 L9.22395248,7.85533359 C9.22139092,8.42501265 8.74735157,8.88491134 8.1648226,8.88240628 L8.16165832,8.88240628 Z" id="Fill-4"></path>
            </g>
        </g>
    </g>
</svg>